<svg xmlns="http://www.w3.org/2000/svg" viewBox="0 0 1200 800"><defs><linearGradient id="sky" x1="0" y1="0" x2="0" y2="1"><stop stop-color="#d98b45"/><stop offset=".5" stop-color="#ead2a0"/><stop offset="1" stop-color="#315047"/></linearGradient><filter id="grain"><feTurbulence type="fractalNoise" baseFrequency=".9" numOctaves="3" stitchTiles="stitch"/><feColorMatrix type="saturate" values="0"/><feComponentTransfer><feFuncA type="table" tableValues="0 .14"/></feComponentTransfer></filter></defs><rect width="1200" height="800" fill="url(#sky)"/><path d="M0 420 C220 260 280 260 450 430 C590 250 720 230 920 420 C1050 300 1120 340 1200 390 L1200 800 L0 800Z" fill="#17362f"/><path d="M0 520 C260 360 480 430 650 560 C780 460 950 440 1200 540 L1200 800 L0 800Z" fill="#284b3a"/><path d="M500 800 C570 675 690 620 760 510 C630 570 530 670 430 800Z" fill="#d9a45d" opacity=".65"/><circle cx="565" cy="330" r="32" fill="#f6d68a"/><g fill="#7b3f73" opacity=".85"><circle cx="120" cy="650" r="12"/><circle cx="180" cy="610" r="8"/><circle cx="980" cy="620" r="10"/><circle cx="1060" cy="680" r="9"/></g><rect width="1200" height="800" filter="url(#grain)" opacity=".45"/></svg>
